<?xml version="1.0" encoding="UTF-8"?>
<svg version="1.1" xmlns="http://www.w3.org/2000/svg" width="1000" height="400">
<path d="M0 0 C330 0 660 0 1000 0 C1000 132 1000 264 1000 400 C670 400 340 400 0 400 C0 268 0 136 0 0 Z " fill="#FEFEFE" transform="translate(0,0)"/>
<path d="M0 0 C10.74612341 8.93275153 18.51970053 19.27360756 25.42480469 31.37109375 C25.85954102 32.12471191 26.29427734 32.87833008 26.7421875 33.65478516 C29.06057614 37.89631793 30.27967038 40.90333845 29.73730469 45.87109375 C13.44932947 47.03799347 -6.5510826 27.18464064 -19.26269531 17.87109375 C-19.85679199 17.43587402 -20.45088867 17.0006543 -21.06298828 16.55224609 C-28.32314666 11.21510724 -35.33909918 5.63621415 -42.26269531 -0.12890625 C-42.26269531 2.01791636 -39.88882459 3.36548049 -38.45501709 4.80319214 C-37.61345062 5.63936569 -37.61345062 5.63936569 -36.75488281 6.49243164 C-35.87706146 7.37047203 -35.87706146 7.37047203 -34.98150635 8.26625061 C-33.03592883 10.2111284 -31.08682716 12.15243485 -29.13769531 14.09375 C-27.79226324 15.43731811 -26.44705098 16.78110637 -25.10205078 18.12510681 C-21.55322455 21.67010616 -18.00140606 25.21209293 -14.44897461 28.753479 C-10.82779207 32.36445106 -7.20942195 35.9782388 -3.59082031 39.59179688 C3.5157913 46.68766817 10.62556442 53.78036285 17.73730469 60.87109375 C21.84760263 59.51069984 25.88438684 58.0590413 29.90527344 56.45703125 C31.73730469 55.87109375 31.73730469 55.87109375 34.73730469 55.87109375 C43.09242374 73.69534772 38.55608431 101.24859006 32.60449219 119.30859375 C31.44740639 122.25111657 30.15735554 125.04685853 28.73730469 127.87109375 C28.23457031 128.91265625 27.73183594 129.95421875 27.21386719 131.02734375 C21.09766371 143.08746329 13.0065051 152.84111612 3.61230469 162.43359375 C2.62725952 163.45223511 2.62725952 163.45223511 1.62231445 164.49145508 C-2.11249977 168.20854887 -5.59358407 170.898055 -10.42944336 173.02563477 C-12.40646783 173.93739875 -14.14238352 175.03656524 -15.95019531 176.24609375 C-27.29601194 183.38651116 -39.30446669 186.93355468 -52.26269531 189.87109375 C-53.05522705 190.05140137 -53.84775879 190.23170898 -54.66430664 190.41748047 C-79.2067685 194.70197677 -105.23628181 188.78016735 -126.26269531 175.87109375 C-127.95159404 174.56603565 -129.62302321 173.23748717 -131.26269531 171.87109375 C-132.30296875 171.32324219 -133.34324219 170.77539062 -134.41503906 170.2109375 C-138.94365814 167.65102773 -142.43267916 164.23640987 -146.07519531 160.55859375 C-146.77443115 159.8529126 -147.47366699 159.14723145 -148.1940918 158.42016602 C-168.74120064 137.15218919 -178.89088706 108.65123642 -178.49707031 79.27734375 C-178.22855547 71.7176183 -176.70321459 64.27947863 -175.26269531 56.87109375 C-170.59682084 55.31580226 -167.45771569 57.89329592 -163.17285156 59.9375 C-160.41794199 61.1477578 -160.41794199 61.1477578 -158.34243774 60.17886353 C-155.91149895 58.6502568 -154.09342039 56.92673807 -152.07666016 54.88037109 C-150.85552017 53.64932144 -150.85552017 53.64932144 -149.60971069 52.3934021 C-148.73980499 51.50689972 -147.86989929 50.62039734 -146.97363281 49.70703125 C-146.07399811 48.7998233 -145.1743634 47.89261536 -144.24746704 46.95791626 C-141.37271127 44.05870855 -138.50426781 41.15338631 -135.63769531 38.24609375 C-131.85977609 34.41465178 -128.07489712 30.59025785 -124.28613281 26.76953125 C-123.41217865 25.87898041 -122.53822449 24.98842957 -121.63778687 24.07089233 C-120.82999786 23.25649689 -120.02220886 22.44210144 -119.18994141 21.60302734 C-118.12215958 20.51953506 -118.12215958 20.51953506 -117.0328064 19.41415405 C-115.26269531 17.87109375 -115.26269531 17.87109375 -113.26269531 17.87109375 C-113.26269531 17.21109375 -113.26269531 16.55109375 -113.26269531 15.87109375 C-111.82910156 14.4609375 -111.82910156 14.4609375 -109.82519531 12.80859375 C-105.0392783 8.75041009 -100.65125762 4.35108444 -96.26269531 -0.12890625 C-96.73650635 0.2273584 -97.21031738 0.58362305 -97.69848633 0.95068359 C-157.50742789 45.87109375 -157.50742789 45.87109375 -169.26269531 45.87109375 C-169.75246006 39.75693383 -168.42510988 36.32912683 -165.38769531 31.24609375 C-164.98421875 30.55314209 -164.58074219 29.86019043 -164.16503906 29.14624023 C-148.85751067 3.45608633 -125.56849414 -14.59863389 -96.67285156 -22.5390625 C-95.47982422 -22.83103516 -95.47982422 -22.83103516 -94.26269531 -23.12890625 C-93.43640625 -23.33386719 -92.61011719 -23.53882812 -91.75878906 -23.75 C-59.54643142 -30.39408515 -25.23554613 -20.32060343 0 0 Z " fill="#3B6A2F" transform="translate(247.2626953125,115.12890625)"/>
<path d="M0 0 C2.0993627 3.62533118 2.89529416 7.45933644 3.8125 11.5 C9.2362645 33.95825186 22.26572259 52.16000852 42.0234375 64.23681641 C51.30783179 69.62754627 60.75371255 73.7790136 71 77 C71.9384375 77.30679688 72.876875 77.61359375 73.84375 77.9296875 C78.55820155 79.4207038 83.0839023 80.46564155 88 81 C84.52587661 83.82865784 80.95711048 86.4592068 77.3125 89.0625 C66.38865071 97.29224658 59.1727035 106.95771682 53 119 C52.2575 120.44246094 52.2575 120.44246094 51.5 121.9140625 C45.23026899 134.86404262 43.8487822 148.89932031 42 163 C41.29206299 162.84853516 40.58412598 162.69707031 39.85473633 162.54101562 C9.69206739 156.20687951 -15.19169152 155.20280429 -41.94140625 171.828125 C-51.18150361 177.7633114 -51.18150361 177.7633114 -58 186 C-58.66 186 -59.32 186 -60 186 C-60.226875 184.700625 -60.45375 183.40125 -60.6875 182.0625 C-65.44664225 158.7524155 -74.75819917 136.20969403 -84.68408203 114.69335938 C-85.13251465 113.71044922 -85.58094727 112.72753906 -86.04296875 111.71484375 C-86.44539795 110.84980225 -86.84782715 109.98476074 -87.26245117 109.09350586 C-87.50584229 108.40264893 -87.7492334 107.71179199 -88 107 C-87.505 106.01 -87.505 106.01 -87 105 C-72.4755666 126.20591989 -58.2326634 147.59765909 -44 169 C-43.96595869 166.16265713 -43.94131245 163.32573185 -43.921875 160.48828125 C-43.91140137 159.69522583 -43.90092773 158.90217041 -43.89013672 158.08508301 C-43.76873085 134.3684464 -53.70302618 111.70909983 -69.9375 94.6875 C-73.58294975 91.17381349 -77.58291575 88.33060042 -81.80078125 85.54296875 C-83.77809749 84.15568649 -85.32568223 82.7247183 -87 81 C-86.46334717 80.86013672 -85.92669434 80.72027344 -85.3737793 80.57617188 C-61.87936286 74.37019374 -40.52265665 66.43340712 -23 49 C-22.23042969 48.26523438 -21.46085937 47.53046875 -20.66796875 46.7734375 C-10.36899461 36.28146725 -3.92804163 21.3783327 -1.3125 7 C-1.11817383 5.98099609 -1.11817383 5.98099609 -0.91992188 4.94140625 C-0.60696029 3.29546014 -0.30254286 1.64789301 0 0 Z " fill="#FDFEFD" transform="translate(177,96)"/>
<path d="M0 0 C57.14707096 0 57.14707096 0 67.93359375 10.4921875 C71.07873132 14.30915975 72.74881018 18.2470525 74 23 C74.18949219 23.71542969 74.37898437 24.43085938 74.57421875 25.16796875 C76.66321684 39.06268083 76.59714994 56.29832369 68 68 C65.75217498 69.89902459 63.49571722 71.41617946 61 73 C61.53109375 73.37769531 62.0621875 73.75539063 62.609375 74.14453125 C63.31578125 74.69496094 64.0221875 75.24539062 64.75 75.8125 C65.44609375 76.33457031 66.1421875 76.85664063 66.859375 77.39453125 C73.36643173 85.31461672 73.59960485 95.16943364 73.609375 104.98046875 C73.62591125 106.27447098 73.64244751 107.56847321 73.65948486 108.90168762 C73.70273554 112.30295802 73.72306185 115.70397269 73.73822021 119.10546875 C73.75794612 122.5919465 73.79968665 126.07816072 73.83984375 129.56445312 C73.91672423 136.37646846 73.95748729 143.18733861 74 150 C64.76 150 55.52 150 46 150 C45.25766744 146.28833722 44.86911944 143.4497304 44.84228516 139.75415039 C44.83202301 138.73281509 44.82176086 137.7114798 44.81118774 136.65919495 C44.80388641 135.56638718 44.79658508 134.47357941 44.7890625 133.34765625 C44.76100174 131.02147724 44.73233734 128.69530545 44.703125 126.36914062 C44.66183197 122.71102034 44.62493196 119.053036 44.59863281 115.39477539 C44.57101814 111.85795507 44.52515669 108.32174225 44.4765625 104.78515625 C44.47330963 103.69437271 44.47005676 102.60358917 44.46670532 101.47975159 C44.37739471 95.956691 44.23311356 91.71409135 41 87 C37.87268146 85.28800934 37.87268146 85.28800934 29 85 C29 106.45 29 127.9 29 150 C19.43 150 9.86 150 0 150 C0 100.5 0 51 0 0 Z " fill="#3A692E" transform="translate(448,131)"/>
<path d="M0 0 C14.52 0 29.04 0 44 0 C47.1005704 19.75712298 50.13553365 39.48695934 52.66308594 59.32342529 C54.91935712 76.97115766 57.56467028 94.55926606 60.23388672 112.14868164 C62.08634708 124.41642025 63.72793576 136.65771513 65 149 C55.1 149 45.2 149 35 149 C34.42796393 144.65865486 33.8574976 140.31716271 33.29101562 135.97509766 C33.09792605 134.49873995 32.90392438 133.02250123 32.70898438 131.54638672 C32.42857516 129.42185775 32.1514734 127.29691928 31.875 125.171875 C31.62363281 123.2552002 31.62363281 123.2552002 31.3671875 121.29980469 C31 118 31 118 31 114 C24.73 114 18.46 114 12 114 C12 116.97 12 119.94 12 123 C11.82284874 125.19256096 11.60713262 127.38252537 11.34375 129.56640625 C11.22193359 130.59967041 11.10011719 131.63293457 10.97460938 132.69750977 C10.81798828 133.97295654 10.66136719 135.24840332 10.5 136.5625 C9.7575 142.7190625 9.7575 142.7190625 9 149 C-0.57 149 -10.14 149 -20 149 C-19.4076383 137.11304748 -18.11635346 125.49696571 -16.41796875 113.72265625 C-16.1594599 111.89976148 -15.9014396 110.07679737 -15.64387512 108.25376892 C-15.10547713 104.45207661 -14.56306589 100.65098814 -14.01733398 96.8503418 C-13.3291992 92.05755227 -12.64833627 87.26376789 -11.97010994 82.4695673 C-9.39125132 64.2477475 -6.7515069 46.04428065 -3.78442383 27.88110352 C-2.8140459 21.91489882 -1.99101417 15.93663548 -1.25 9.9375 C-0.63125 5.0184375 -0.63125 5.0184375 0 0 Z " fill="#39692D" transform="translate(669,132)"/>
<path d="M0 0 C6.55080053 5.60320046 10.6610736 13.04736296 11.86328125 21.59375 C11.9761445 24.69967371 11.95741807 27.79884213 11.92578125 30.90625 C11.90515625 33.773125 11.88453125 36.64 11.86328125 39.59375 C2.29328125 39.59375 -7.27671875 39.59375 -17.13671875 39.59375 C-17.57421875 31.78125 -17.57421875 31.78125 -17.70483398 29.33276367 C-17.88956593 26.21965943 -18.14622181 23.56524083 -19.13671875 20.59375 C-22.81787412 18.13964642 -24.78965473 18.36087157 -29.13671875 18.59375 C-30.12671875 18.92375 -31.11671875 19.25375 -32.13671875 19.59375 C-34.18677664 24.87315891 -34.42901992 29.75764597 -34.41137695 35.37133789 C-34.41648788 36.22103653 -34.42159882 37.07073517 -34.42686462 37.94618225 C-34.44069002 40.73632986 -34.43980965 43.5262286 -34.4375 46.31640625 C-34.44138986 48.26501049 -34.44572513 50.21361388 -34.45048523 52.16221619 C-34.45793156 56.23813634 -34.45766698 60.31396984 -34.45239258 64.38989258 C-34.44658991 69.60750632 -34.46355593 74.82476601 -34.48673725 80.04232121 C-34.50147975 84.06324835 -34.50234576 88.08409022 -34.49922752 92.1050396 C-34.49974014 94.02872864 -34.50496667 95.95242254 -34.51503944 97.87608528 C-34.52740107 100.56614266 -34.52061467 103.25550999 -34.5090332 105.94555664 C-34.51667694 106.73585266 -34.52432068 107.52614868 -34.53219604 108.34039307 C-34.48492361 113.31798067 -33.86341453 117.86705422 -30.13671875 121.59375 C-25.00990034 122.06802773 -25.00990034 122.06802773 -20.26171875 120.59375 C-16.20106583 113.37481148 -16.71498601 104.61433716 -16.51171875 96.59375 C-16.47304688 95.34207031 -16.434375 94.09039062 -16.39453125 92.80078125 C-16.30082534 89.7319128 -16.21510805 86.66304147 -16.13671875 83.59375 C-19.43671875 83.59375 -22.73671875 83.59375 -26.13671875 83.59375 C-26.13671875 75.67375 -26.13671875 67.75375 -26.13671875 59.59375 C-13.26671875 59.59375 -0.39671875 59.59375 12.86328125 59.59375 C12.86328125 87.64375 12.86328125 115.69375 12.86328125 144.59375 C5.60328125 144.59375 -1.65671875 144.59375 -9.13671875 144.59375 C-9.79671875 141.62375 -10.45671875 138.65375 -11.13671875 135.59375 C-11.56082031 136.13644531 -11.98492187 136.67914063 -12.421875 137.23828125 C-13.00839844 137.95371094 -13.59492188 138.66914063 -14.19921875 139.40625 C-14.76769531 140.11394531 -15.33617187 140.82164062 -15.921875 141.55078125 C-21.48770964 146.68469927 -27.34229943 147.09443595 -34.57421875 147.03125 C-35.38181641 147.05123047 -36.18941406 147.07121094 -37.02148438 147.09179688 C-43.95130932 147.08621281 -49.03621967 145.20585188 -54.34375 140.734375 C-58.13242448 136.27277294 -60.6136957 132.25350017 -62.13671875 126.59375 C-62.47354172 125.41189117 -62.81036469 124.23003235 -63.15739441 123.01235962 C-64.27219911 118.51845691 -64.42582734 114.25866671 -64.41137695 109.64599609 C-64.41648788 108.78949463 -64.42159882 107.93299316 -64.42686462 107.05053711 C-64.4406806 104.23934798 -64.43980912 101.42840641 -64.4375 98.6171875 C-64.44139285 96.64433706 -64.44572873 94.67148746 -64.45048523 92.69863892 C-64.45793145 88.56810793 -64.45766889 84.43766244 -64.45239258 80.30712891 C-64.44661671 75.04885517 -64.46349123 69.79093583 -64.48673725 64.53272057 C-64.50157179 60.45742797 -64.50233287 56.38221866 -64.49922752 52.30690384 C-64.49973641 50.37028937 -64.50489166 48.4336697 -64.51503944 46.49708176 C-64.587148 30.80520358 -64.61725197 13.73031368 -53.13671875 1.59375 C-38.96009938 -10.55245841 -14.93822072 -11.14221947 0 0 Z " fill="#3A692E" transform="translate(399.13671875,135.40625)"/>
<path d="M0 0 C10.74612341 8.93275153 18.51970053 19.27360756 25.42480469 31.37109375 C25.85954102 32.12471191 26.29427734 32.87833008 26.7421875 33.65478516 C29.06057614 37.89631793 30.27967038 40.90333845 29.73730469 45.87109375 C13.44932947 47.03799347 -6.5510826 27.18464064 -19.26269531 17.87109375 C-19.85679199 17.43587402 -20.45088867 17.0006543 -21.06298828 16.55224609 C-28.32314666 11.21510724 -35.33909918 5.63621415 -42.26269531 -0.12890625 C-42.37764707 1.30084476 -42.37764707 1.30084476 -39.98486328 3.26245117 C-38.91076974 4.33639473 -37.8338577 5.40752325 -36.75488281 6.4765625 C-35.87706146 7.35219345 -35.87706146 7.35219345 -34.98150635 8.24551392 C-33.7057515 9.51745213 -32.42884252 10.78823352 -31.15093994 12.05801392 C-29.13231478 14.06394044 -27.11677342 16.07291805 -25.10205078 18.08276367 C-20.82503144 22.3483208 -16.54413476 26.60997381 -12.26269531 30.87109375 C-7.30389244 35.80636238 -2.34665702 40.7431831 2.60638428 45.68423462 C4.59869209 47.67002568 6.59397261 49.65279758 8.58935547 51.63549805 C9.8028811 52.84539322 11.01626771 54.05542784 12.22949219 55.265625 C12.7905365 55.82150299 13.35158081 56.37738098 13.92962646 56.95010376 C15.21796621 58.23826361 16.48074839 59.55191166 17.73730469 60.87109375 C17.73730469 61.20109375 17.73730469 61.53109375 17.73730469 61.87109375 C11.96106625 62.1775255 7.33860607 61.16112976 1.86230469 59.37109375 C1.03802979 59.10482178 0.21375488 58.8385498 -0.63549805 58.56420898 C-13.08858535 54.40206496 -24.90882201 49.03238212 -35.26269531 40.87109375 C-36.61427734 39.85595703 -36.61427734 39.85595703 -37.99316406 38.8203125 C-55.03275805 25.58818641 -66.33435811 6.32286627 -69.26269531 -15.12890625 C-69.53082031 -14.08734375 -69.79894531 -13.04578125 -70.07519531 -11.97265625 C-73.8901769 2.21920876 -79.21478716 15.87678944 -89.26269531 26.87109375 C-90.04 27.73992187 -90.81730469 28.60875 -91.61816406 29.50390625 C-109.55753155 48.52970515 -133.334328 56.94218477 -158.26269531 62.87109375 C-156.79360919 59.48147241 -154.90486006 57.26023484 -152.30371094 54.65332031 C-151.48946655 53.83277161 -150.67522217 53.0122229 -149.83630371 52.16680908 C-148.95607544 51.29062927 -148.07584717 50.41444946 -147.16894531 49.51171875 C-146.26648071 48.6073407 -145.36401611 47.70296265 -144.4342041 46.7711792 C-142.52674427 44.86235884 -140.61739119 42.95568826 -138.70458984 41.05224609 C-136.24963222 38.60871494 -133.80380539 36.1562714 -131.3605423 33.70105362 C-129.03068938 31.36225462 -126.69325 29.03106882 -124.35644531 26.69921875 C-123.47621704 25.81494202 -122.59598877 24.93066528 -121.68908691 24.01959229 C-120.87484253 23.21165222 -120.06059814 22.40371216 -119.22167969 21.57128906 C-118.50379272 20.85499329 -117.78590576 20.13869751 -117.04626465 19.4006958 C-115.26269531 17.87109375 -115.26269531 17.87109375 -113.26269531 17.87109375 C-113.26269531 17.21109375 -113.26269531 16.55109375 -113.26269531 15.87109375 C-111.82910156 14.4609375 -111.82910156 14.4609375 -109.82519531 12.80859375 C-105.0392783 8.75041009 -100.65125762 4.35108444 -96.26269531 -0.12890625 C-96.73650635 0.2273584 -97.21031738 0.58362305 -97.69848633 0.95068359 C-157.50742789 45.87109375 -157.50742789 45.87109375 -169.26269531 45.87109375 C-169.75246006 39.75693383 -168.42510988 36.32912683 -165.38769531 31.24609375 C-164.98421875 30.55314209 -164.58074219 29.86019043 -164.16503906 29.14624023 C-148.85751067 3.45608633 -125.56849414 -14.59863389 -96.67285156 -22.5390625 C-95.47982422 -22.83103516 -95.47982422 -22.83103516 -94.26269531 -23.12890625 C-93.43640625 -23.33386719 -92.61011719 -23.53882812 -91.75878906 -23.75 C-59.54643142 -30.39408515 -25.23554613 -20.32060343 0 0 Z " fill="#3A6A2F" transform="translate(247.2626953125,115.12890625)"/>
<path d="M0 0 C0.7734375 -0.01224609 1.546875 -0.02449219 2.34375 -0.03710938 C10.44213118 -0.05749121 18.52307936 1.42484019 25.25 6.1875 C30.49824794 11.41475495 33.5488863 17.01665148 35.25 24.1875 C35.43691406 24.91839844 35.62382813 25.64929688 35.81640625 26.40234375 C36.41997032 30.27929135 36.35484027 34.08408662 36.3125 38 C36.291875 40.701875 36.27125 43.40375 36.25 46.1875 C27.01 46.1875 17.77 46.1875 8.25 46.1875 C7.875 37.375 7.875 37.375 7.77197266 34.61010742 C7.7363623 33.88670166 7.70075195 33.1632959 7.6640625 32.41796875 C7.6326416 31.67957764 7.6012207 30.94118652 7.56884766 30.18041992 C7.34165386 27.87400412 7.34165386 27.87400412 5.25 25.1875 C3.04274927 24.82387182 3.04274927 24.82387182 0.625 25 C-0.19226563 25.02707031 -1.00953125 25.05414063 -1.8515625 25.08203125 C-2.79128906 25.13423828 -2.79128906 25.13423828 -3.75 25.1875 C-5.65469728 31.50064984 -6.02975839 39.85256509 -3.625 46.0625 C0.41554634 52.7967439 5.42936838 57.28116589 11.59765625 62.0859375 C25.49212225 73.09510202 36.0784579 84.01224011 38.25 102.1875 C39.14920634 117.35709384 37.9608438 130.8815613 29.5 143.875 C21.98296808 151.60083837 12.46327152 154.21213085 1.91943359 154.54125977 C-9.242715 154.64748454 -18.37889436 153.12654857 -26.75 145.1875 C-37.28814364 134.07585195 -36.8780786 119.66038212 -36.75 105.1875 C-27.18 105.1875 -17.61 105.1875 -7.75 105.1875 C-7.375 114.4375 -7.375 114.4375 -7.27197266 117.33300781 C-7.2363623 118.09452148 -7.20075195 118.85603516 -7.1640625 119.640625 C-7.11693115 120.80319824 -7.11693115 120.80319824 -7.06884766 121.98925781 C-6.71418325 124.43443266 -6.04612301 126.09044092 -4.75 128.1875 C-2.34454362 129.39022819 -0.80003047 129.28821472 1.875 129.25 C3.10089844 129.23646484 3.10089844 129.23646484 4.3515625 129.22265625 C4.97804688 129.21105469 5.60453125 129.19945312 6.25 129.1875 C9.09421275 120.28934043 10.24165789 110.39593784 6.1875 101.6875 C2.28661157 95.09184741 -3.09347958 90.69132342 -9 85.9375 C-20.16967759 76.87269975 -31.0749736 67.00251021 -33.75 52.1875 C-34.0800385 48.10102994 -34.12012686 44.03580706 -34.125 39.9375 C-34.14949219 38.86886719 -34.17398438 37.80023438 -34.19921875 36.69921875 C-34.23478389 26.94251643 -32.01801217 17.88820067 -25.75 10.1875 C-17.9774696 2.47198082 -10.69500452 0.00873775 0 0 Z " fill="#3A692E" transform="translate(880.75,129.8125)"/>
<path d="M0 0 C20.46 0 40.92 0 62 0 C62 8.58 62 17.16 62 26 C51.11 26 40.22 26 29 26 C29 36.89 29 47.78 29 59 C39.23 59 49.46 59 60 59 C60 67.25 60 75.5 60 84 C49.77 84 39.54 84 29 84 C29 97.53 29 111.06 29 125 C40.88 125 52.76 125 65 125 C64.01 133.25 63.02 141.5 62 150 C41.54 150 21.08 150 0 150 C0 100.5 0 51 0 0 Z " fill="#39692D" transform="translate(557,131)"/>
<path d="M0 0 C23.76 0 47.52 0 72 0 C72 8.25 72 16.5 72 25 C64.74 25 57.48 25 50 25 C50 66.25 50 107.5 50 150 C40.43 150 30.86 150 21 150 C21 108.75 21 67.5 21 25 C14.07 25 7.14 25 0 25 C0 16.75 0 8.5 0 0 Z " fill="#3A692E" transform="translate(748,132)"/>
<path d="M0 0 C0.495 0.99 0.495 0.99 1 2 C0.36669922 3.85668945 0.36669922 3.85668945 -0.6953125 6.11328125 C-1.07913086 6.94279297 -1.46294922 7.77230469 -1.85839844 8.62695312 C-2.27637695 9.51318359 -2.69435547 10.39941406 -3.125 11.3125 C-6.29126538 18.17233479 -9.26593041 25.00714611 -11.8984375 32.08984375 C-12.98188065 34.9521315 -14.1634066 37.75238499 -15.375 40.5625 C-17.668455 46.01308452 -19.66925345 51.54664235 -21.625 57.125 C-21.9142334 57.94814697 -22.2034668 58.77129395 -22.50146484 59.61938477 C-26.67990933 71.58490127 -26.67990933 71.58490127 -29 84 C-29.67246765 83.85789093 -30.3449353 83.71578186 -31.03778076 83.56936646 C-39.96576593 81.86482768 -48.66237178 81.74081109 -57.703125 81.8046875 C-59.27780984 81.8084272 -60.85249704 81.81126964 -62.42718506 81.81326294 C-66.53048359 81.82082415 -70.63363588 81.8404061 -74.73687744 81.8626709 C-78.94045027 81.88329316 -83.1440472 81.89229934 -87.34765625 81.90234375 C-95.56517056 81.92366072 -103.78256699 81.9577034 -112 82 C-108.50236257 79.66824171 -106.22777512 79.42204669 -102.078125 78.8515625 C-101.04587296 78.70560638 -101.04587296 78.70560638 -99.99276733 78.55670166 C-98.51477007 78.34822499 -97.03630358 78.14305346 -95.55743408 77.94085693 C-91.67397858 77.4092637 -87.79411347 76.8526898 -83.9140625 76.296875 C-83.14319305 76.18693207 -82.37232361 76.07698914 -81.57809448 75.9637146 C-75.23865203 75.05230613 -68.92885216 74.0072426 -62.625 72.875 C-55.36632678 71.57725102 -48.10346701 70.3536481 -40.8125 69.25 C-39.97992676 69.12222168 -39.14735352 68.99444336 -38.28955078 68.86279297 C-34.80672513 68.34441553 -31.52940227 68 -28 68 C-29.63732045 64.72535911 -33.22278251 64.21467511 -36.5 63 C-43.86486486 60.27027027 -43.86486486 60.27027027 -45 58 C-38.99493786 49.8634113 -32.92446278 41.81154063 -26.5 34 C-21.55980316 27.99157252 -16.83010615 21.85898866 -12.19433594 15.61328125 C-8.25121509 10.30615434 -4.18458849 5.1199671 0 0 Z " fill="#F9FAF8" transform="translate(265,200)"/>
<path d="M0 0 C4.00769394 3.59932702 6.70327799 7.83797778 9.625 12.3125 C10.84847019 14.1669888 12.07247921 16.02112218 13.296875 17.875 C14.01037109 18.9578125 14.72386719 20.040625 15.45898438 21.15625 C20.30257263 28.4937125 25.19404135 35.79953301 30.07391357 43.11288452 C32.98536441 47.47680489 35.89496474 51.84195856 38.8046875 56.20703125 C39.81493245 57.72241808 40.82518544 59.23779955 41.83544922 60.75317383 C42.54975098 61.82462646 43.26405273 62.8960791 44 64 C44.33 59.38 44.66 54.76 45 50 C45.33 50 45.66 50 46 50 C48.32170532 64.11664623 48.32170532 64.11664623 45.30859375 68.41015625 C42.95578179 70.15784567 40.56138639 71.57923099 38 73 C36.63822548 74.06889287 35.30149622 75.17097935 34 76.3125 C33.443125 76.78300781 32.88625 77.25351562 32.3125 77.73828125 C30.86703029 78.98687513 30.86703029 78.98687513 30 81 C29.34 81 28.68 81 28 81 C27.773125 79.700625 27.54625 78.40125 27.3125 77.0625 C22.55263296 53.7488655 13.19070953 31.2745641 3.40380859 9.69335938 C2.95859863 8.71044922 2.51338867 7.72753906 2.0546875 6.71484375 C1.65749512 5.84980225 1.26030273 4.98476074 0.85107422 4.09350586 C0 2 0 2 0 0 Z " fill="#F8F9F8" transform="translate(89,201)"/>
<path d="M0 0 C11.57142857 0 11.57142857 0 15 3 C17.7765156 7.55664753 17.33043471 12.06328208 17.3125 17.25 C17.32861328 18.16652344 17.34472656 19.08304688 17.36132812 20.02734375 C17.36562222 26.04766086 16.55573726 30.52960838 14 36 C9.50040496 40.23491298 6.81949466 39 0 39 C0 26.13 0 13.26 0 0 Z " fill="#FAFBFA" transform="translate(477,154)"/>
<path d="M0 0 C-0.99 5.28 -1.98 10.56 -3 16 C-4.63549805 15.67402832 -6.27099609 15.34805664 -7.95605469 15.01220703 C-15.88053851 13.69831574 -23.70290329 13.74816284 -31.703125 13.8046875 C-33.27780984 13.8084272 -34.85249704 13.81126964 -36.42718506 13.81326294 C-40.53048359 13.82082415 -44.63363588 13.8404061 -48.73687744 13.8626709 C-52.94045027 13.88329316 -57.1440472 13.89229934 -61.34765625 13.90234375 C-69.56517056 13.92366072 -77.78256699 13.9577034 -86 14 C-82.50236257 11.66824171 -80.22777512 11.42204669 -76.078125 10.8515625 C-75.38995697 10.75425842 -74.70178894 10.65695435 -73.99276733 10.55670166 C-72.51477007 10.34822499 -71.03630358 10.14305346 -69.55743408 9.94085693 C-65.67397858 9.4092637 -61.79411347 8.8526898 -57.9140625 8.296875 C-57.14319305 8.18693207 -56.37232361 8.07698914 -55.57809448 7.9637146 C-49.23864558 7.0523052 -42.92889035 6.00705031 -36.625 4.875 C-29.40700212 3.58660256 -22.18556945 2.35843434 -14.9375 1.25 C-13.71377686 1.05833252 -13.71377686 1.05833252 -12.46533203 0.86279297 C-11.7020459 0.74822754 -10.93875977 0.63366211 -10.15234375 0.515625 C-9.1622229 0.36528809 -9.1622229 0.36528809 -8.15209961 0.21191406 C-5.44689835 -0.0544631 -2.7182845 0 0 0 Z " fill="#F1F5F1" transform="translate(239,268)"/>
<path d="M0 0 C0.66 0 1.32 0 2 0 C2.71891199 7.22182919 3.43015583 14.44438497 4.13623047 21.66748047 C4.37700365 24.12142784 4.61949147 26.57520764 4.86376953 29.02880859 C5.21584562 32.56825108 5.56162375 36.1082628 5.90625 39.6484375 C6.07030334 41.277173 6.07030334 41.277173 6.2376709 42.93881226 C6.85240982 49.32745871 7.10377239 55.58167743 7 62 C2.71 62 -1.58 62 -6 62 C-4.97722048 48.61963733 -3.87424073 35.24806342 -2.63540649 21.88598633 C-2.50395904 20.46728626 -2.3733981 19.04850375 -2.2437439 17.62963867 C-2.05986957 15.62262168 -1.87180706 13.61598975 -1.68359375 11.609375 C-1.57587646 10.45405273 -1.46815918 9.29873047 -1.35717773 8.10839844 C-1.04106678 5.35739047 -0.59231053 2.70318763 0 0 Z " fill="#F6F8F6" transform="translate(690,158)"/>
<path d="M0 0 C0.33 0 0.66 0 1 0 C1 10.23 1 20.46 1 31 C-9.23 31 -19.46 31 -30 31 C-27 29 -27 29 -23.875 27.75 C-12.62721124 22.97028427 -5.60505943 15.24106814 -1 4 C-0.64053875 2.67347201 -0.2997132 1.34129075 0 0 Z " fill="#000000" transform="translate(999,369)"/>
<path d="M0 0 C10.23 0 20.46 0 31 0 C31 10.23 31 20.46 31 31 C29.35295661 28.52943492 28.38597095 26.58539272 27.3125 23.875 C22.71571144 13.54061404 15.39620339 6.24827212 4.73828125 2.125 C2.68152209 1.49404838 2.68152209 1.49404838 0 1 C0 0.67 0 0.34 0 0 Z " fill="#000000" transform="translate(969,0)"/>
<path d="M0 0 C1.04254276 2.08508553 2.07912878 4.17426114 3.04296875 6.296875 C8.03400216 16.99438006 14.89578202 24.63046737 26.1953125 28.8125 C27.77914762 29.27418473 29.38789992 29.64954346 31 30 C31 30.33 31 30.66 31 31 C20.77 31 10.54 31 0 31 C0 20.77 0 10.54 0 0 Z " fill="#000000" transform="translate(0,369)"/>
<path d="M0 0 C10.23 0 20.46 0 31 0 C28 2 28 2 24.875 3.25 C14.6866602 7.62562383 7.27817067 14.36560252 2.8359375 24.7109375 C2.13751431 26.7800978 1.55407153 28.8876023 1 31 C0.67 31 0.34 31 0 31 C0 20.77 0 10.54 0 0 Z " fill="#000000" transform="translate(0,0)"/>
<path d="M0 0 C0.66 0.33 1.32 0.66 2 1 C-2.95 5.95 -7.9 10.9 -13 16 C-13.66 15.34 -14.32 14.68 -15 14 C-13.4782131 9.96001812 -10.99078776 8.29099258 -7.5 5.875 C-3.56469261 3.15831731 -3.56469261 3.15831731 0 0 Z " fill="#D1DCCE" transform="translate(150,114)"/>
<path d="M0 0 C0.33 0.66 0.66 1.32 1 2 C0.22265625 4.1640625 0.22265625 4.1640625 -0.9375 6.625 C-1.31777344 7.44226563 -1.69804687 8.25953125 -2.08984375 9.1015625 C-2.54037109 10.04128906 -2.54037109 10.04128906 -3 11 C-5 11 -7 11 -9 11 C-6.03 7.37 -3.06 3.74 0 0 Z " fill="#DDE5DB" transform="translate(265,200)"/>
<path d="M0 0 C0.66 0 1.32 0 2 0 C2.19294408 4.82360189 1.75747614 8.49646738 0 13 C-0.33 13 -0.66 13 -1 13 C-1.07654536 8.48382401 -1.10228696 4.40914783 0 0 Z " fill="#C8D5C5" transform="translate(690,158)"/>
<path d="M0 0 C0.33 0 0.66 0 1 0 C1.33 5.28 1.66 10.56 2 16 C1.01 16 0.02 16 -1 16 C-0.67 10.72 -0.34 5.44 0 0 Z " fill="#D4DED2" transform="translate(134,251)"/>
<path d="M0 0 C3.76488042 1.72154788 6.15063897 3.99234114 9 7 C6 7 6 7 4.39453125 5.46875 C3.87246094 4.8190625 3.35039062 4.169375 2.8125 3.5 C2.28269531 2.8503125 1.75289062 2.200625 1.20703125 1.53125 C0.80871094 1.0259375 0.41039062 0.520625 0 0 Z " fill="#ADC1A8" transform="translate(202,113)"/>
</svg>
