<?xml version="1.0" encoding="UTF-8"?>
<svg version="1.1" xmlns="http://www.w3.org/2000/svg" width="300" height="300">
<path d="M0 0 C99 0 198 0 300 0 C300 99 300 198 300 300 C201 300 102 300 0 300 C0 201 0 102 0 0 Z " fill="#FDFEFD" transform="translate(0,0)"/>
<path d="M0 0 C0.33 0 0.66 0 1 0 C1.11214844 1.14662109 1.11214844 1.14662109 1.2265625 2.31640625 C2.98205837 16.61853434 7.93237462 27.87655672 17 39 C17.62390625 39.83402344 18.2478125 40.66804688 18.890625 41.52734375 C22.86282741 46.18364768 28.02479243 49.49431557 33 53 C33.77214844 53.55042969 34.54429687 54.10085937 35.33984375 54.66796875 C45.97243592 61.63801599 59.47557579 66.15213413 72 68 C69.53988734 70.66444095 66.79765643 72.57875737 63.8125 74.625 C48.15629817 85.97007379 40.81763806 102.36801459 36.33984375 120.703125 C35.9598102 123.27162763 35.90289634 125.7172256 35.9375 128.3125 C35.94652344 129.19550781 35.95554687 130.07851562 35.96484375 130.98828125 C35.97644531 131.65214844 35.98804688 132.31601563 36 133 C41.67572627 126.35055996 47.14656556 119.58431093 52.4375 112.625 C52.98148437 111.90965088 53.52546875 111.19430176 54.0859375 110.45727539 C54.62992188 109.74176514 55.17390625 109.02625488 55.734375 108.2890625 C58.86253296 104.17473317 62.01123832 100.07730997 65.1875 96 C65.64503662 95.40654785 66.10257324 94.8130957 66.57397461 94.20166016 C69.76823076 90.11588462 69.76823076 90.11588462 72 89 C69.8049237 95.91200402 67.1618148 102.52216785 64.3125 109.1875 C54.60006124 132.07823775 54.60006124 132.07823775 48 156 C46.97033867 155.75601219 46.97033867 155.75601219 45.9198761 155.50709534 C42.65066081 154.93933021 39.60071146 154.88022465 36.28198242 154.88647461 C35.62776306 154.88632858 34.9735437 154.88618256 34.29949951 154.8860321 C32.15145474 154.88672506 30.00349825 154.89448836 27.85546875 154.90234375 C26.36045886 154.90421012 24.86544835 154.90563299 23.37043762 154.90663147 C19.44628189 154.91043936 15.5221635 154.92025482 11.59802246 154.93133545 C7.58944199 154.94158679 3.58085545 154.94613706 -0.42773438 154.95117188 C-8.28517334 154.9618787 -16.14258202 154.97893428 -24 155 C-24 154.67 -24 154.34 -24 154 C-22.71666779 153.79661766 -22.71666779 153.79661766 -21.40740967 153.58912659 C-13.34392468 152.31090384 -5.2807119 151.0309803 2.78219986 149.74914646 C6.92740546 149.09020721 11.07271327 148.43192565 15.21826172 147.77514648 C19.21906607 147.14127432 23.2195926 146.50567542 27.21993256 145.86887932 C28.74604275 145.62625574 30.27225195 145.38425408 31.7985611 145.14288521 C33.93661101 144.80466733 36.07429795 144.4642383 38.21191406 144.12329102 C39.4288092 143.93009781 40.64570435 143.7369046 41.8994751 143.53785706 C44.31081786 143.11955443 46.64143302 142.64331406 49 142 C27.01939819 133.12492524 2.16540562 126.34142497 -20.91210938 135.78222656 C-30.94793615 140.11827995 -41.79093263 145.68639895 -48 155 C-48.66 155 -49.32 155 -50 155 C-50.11214844 154.20722656 -50.22429687 153.41445312 -50.33984375 152.59765625 C-53.72045554 132.60122703 -62.34420515 113.68031816 -70.13623047 95.07226562 C-71.11493143 92.72426853 -72.06622546 90.36621402 -73 88 C-69.54858032 91.18301954 -67.01555251 94.74490417 -64.4765625 98.66015625 C-63.59035559 100.00809777 -62.70395447 101.35591163 -61.81738281 102.70361328 C-61.35690552 103.40689758 -60.89642822 104.11018188 -60.42199707 104.83477783 C-58.03828746 108.46436399 -55.62297219 112.07279747 -53.2109375 115.68359375 C-52.2407351 117.13857165 -51.27068317 118.5936499 -50.30078125 120.04882812 C-49.8207666 120.7688501 -49.34075195 121.48887207 -48.84619141 122.23071289 C-44.89746094 128.15380859 -40.94873047 134.0769043 -37 140 C-36.66866943 118.5264046 -40.32786723 99.09590435 -54.7265625 82.25 C-60.70042735 76.33772138 -67.41254267 71.59109627 -75 68 C-72.19628753 67.06542918 -69.85607001 66.72801972 -66.9375 66.375 C-46.32684964 63.00234812 -25.41033079 51.33812097 -12.78125 34.671875 C-5.60284999 23.90427498 -2.01023216 12.65263771 0 0 Z " fill="#FDFDFD" transform="translate(150,30)"/>
<path d="M0 0 C19.90798789 6.30942136 32.93939475 17.31549044 42.8125 35.6875 C49.31766612 49.46937519 50.63523595 62.91314624 50 78 C46.62394222 74.87014298 44.09440932 71.40410307 41.5859375 67.57421875 C41.17139313 66.9495723 40.75684875 66.32492584 40.32974243 65.68135071 C39.00710363 63.68626644 37.69091544 61.6870236 36.375 59.6875 C35.51475648 58.38708288 34.65408271 57.08695027 33.79296875 55.78710938 C32.06997809 53.18494626 30.34825232 50.58195512 28.62792969 47.97802734 C28.19895386 47.3288031 27.76997803 46.67957886 27.32800293 46.01068115 C26.41878289 44.63406401 25.51003291 43.25713633 24.60168457 41.87994385 C23.2289057 39.79996685 21.8530484 37.72205628 20.4765625 35.64453125 C19.84649796 34.68760628 19.84649796 34.68760628 19.20370483 33.71134949 C17.59149838 31.28237504 16.06727291 29.06727291 14 27 C14.28480225 27.52754883 14.56960449 28.05509766 14.86303711 28.59863281 C18.73103875 36.02211696 21.74630615 43.69759606 24.71166992 51.51171875 C25.55679396 53.73498911 26.41356487 55.95351573 27.27148438 58.171875 C36.32907058 81.77547935 36.32907058 81.77547935 36 92 C36.66 92 37.32 92 38 92 C38.23460937 91.42765625 38.46921875 90.8553125 38.7109375 90.265625 C44.90755943 79.37459251 61.54018177 72.24496217 73.125 69 C94.36456192 64.96817249 115.5518339 69.13690347 135 78 C135.33 78.66 135.66 79.32 136 80 C102.835 85.445 102.835 85.445 69 91 C88.52092954 90.9208952 88.52092954 90.9208952 108.04174805 90.81982422 C110.49006984 90.81398266 112.93839358 90.80888631 115.38671875 90.8046875 C117.29161072 90.7893396 117.29161072 90.7893396 119.23498535 90.77368164 C121.06132507 90.77331909 121.06132507 90.77331909 122.92456055 90.77294922 C123.97935104 90.768508 125.03414154 90.76406677 126.12089539 90.75949097 C129.11067042 91.00924497 131.29258409 91.74120894 134 93 C134.1393396 91.92032959 134.1393396 91.92032959 134.28149414 90.81884766 C135.4335131 82.90708488 137.57461565 75.82325788 140.4375 68.375 C141.085979 66.65446411 141.085979 66.65446411 141.74755859 64.89916992 C146.49031854 52.4572675 151.6932193 40.21046701 157 28 C152.98990399 31.79942067 149.74735454 35.85359256 146.5 40.3125 C140.70748635 48.15453188 134.64409324 55.74823253 128.43408203 63.26269531 C127.46643045 64.43494739 126.50396848 65.61150005 125.54638672 66.79199219 C124.38617632 68.21284463 123.19608066 69.60920854 122 71 C121.67 71 121.34 71 121 71 C119.52324492 51.26891135 128.44312864 33.07594324 140.8125 18.3125 C148.95978202 9.43024244 160.90144729 1.53916499 173 0 C177.86648119 15.88419461 176.5850362 35.4454132 171 51 C170.57589844 52.19367188 170.15179688 53.38734375 169.71484375 54.6171875 C163.26019518 71.05047103 150.78859982 88.34173558 135 97 C134.38995117 97.34514648 133.77990234 97.69029297 133.15136719 98.04589844 C124.40052321 102.98195369 115.78146906 107.46354456 106 110 C105.18273437 110.22300781 104.36546875 110.44601563 103.5234375 110.67578125 C80.61643759 115.88836482 57.15180558 110.27146154 37.5625 98 C24.3524493 89.37530467 14.6783143 78.72459822 7 65 C6.42507812 63.97519531 5.85015625 62.95039063 5.2578125 61.89453125 C-3.568885 44.57049063 -6.49946836 21.75194661 -1 3 C-0.67 2.01 -0.34 1.02 0 0 Z " fill="#3B6A2F" transform="translate(64,93)"/>
<path d="M0 0 C3.49981288 2.49381523 6.77385358 5.16267253 10 8 C10.75023437 8.65484375 11.50046875 9.3096875 12.2734375 9.984375 C20.76498697 17.90982117 28.85676316 29.03730012 33 40 C33 41.32 33 42.64 33 44 C17.10579397 45.23912851 -3.41991469 24.58996102 -15.29223633 15.36450195 C-15.95247803 14.85234131 -16.61271973 14.34018066 -17.29296875 13.8125 C-18.15184692 13.14154297 -18.15184692 13.14154297 -19.02807617 12.45703125 C-21.61803352 10.54334232 -24.32058044 8.78627971 -27 7 C-10.83 23.17 5.34 39.34 22 56 C10.78755131 58.80311217 -4.07555124 50.92768685 -13.5625 45.3125 C-30.05250287 34.67764308 -42.39249001 21.11292136 -48 2 C-48.36950465 -0.32787927 -48.71352467 -2.66045145 -49 -5 C-49.495 -5.495 -49.495 -5.495 -50 -6 C-50.23783203 -4.89205078 -50.23783203 -4.89205078 -50.48046875 -3.76171875 C-55.22032122 16.84747405 -66.52192306 32.49619998 -84.20507812 43.90136719 C-95.07302527 50.5534023 -109.19862958 56.21624263 -122 57 C-117.06002739 51.03881703 -111.71470138 45.58513698 -106.2265625 40.12890625 C-105.3028183 39.206577 -104.3790741 38.28424774 -103.42733765 37.33396912 C-100.99324569 34.90366186 -98.55616403 32.47637504 -96.1184082 30.04974365 C-93.6226689 27.56430636 -91.12982292 25.07597068 -88.63671875 22.58789062 C-83.7606114 17.72244904 -78.88133369 12.86019802 -74 8 C-74.53943237 8.40543533 -75.07886475 8.81087067 -75.63464355 9.22859192 C-76.70398132 10.03159981 -76.70398132 10.03159981 -77.79492188 10.85083008 C-78.49935425 11.38001541 -79.20378662 11.90920074 -79.92956543 12.454422 C-85.21575735 16.40056068 -90.61135535 20.19569277 -96 24 C-96.65097656 24.46132324 -97.30195312 24.92264648 -97.97265625 25.39794922 C-122.85755887 42.98417321 -122.85755887 42.98417321 -132 44 C-132.43719171 38.84738337 -131.11436803 35.56202521 -128.5 31.25 C-128.1390625 30.63946777 -127.778125 30.02893555 -127.40625 29.39990234 C-124.06527309 23.87365972 -120.28945628 18.83092611 -116 14 C-115.39800781 13.31550781 -114.79601562 12.63101563 -114.17578125 11.92578125 C-84.19157565 -20.06994338 -35.90048153 -22.8157731 0 0 Z " fill="#3B6A2F" transform="translate(200,41)"/>
<path d="M0 0 C0.495 0.99 0.495 0.99 1 2 C0.26525028 4.1001455 -0.5781163 6.16249208 -1.46484375 8.203125 C-1.73338669 8.82908066 -2.00192963 9.45503632 -2.27861023 10.09996033 C-2.85755757 11.4492315 -3.439635 12.79716295 -4.0244751 14.14389038 C-5.55387354 17.67181253 -7.05357691 21.21222382 -8.55078125 24.75390625 C-8.84942078 25.46005569 -9.1480603 26.16620514 -9.45574951 26.89375305 C-14.92109665 39.88143091 -20.19464935 53.14858118 -23 67 C-24.02966133 66.75601219 -24.02966133 66.75601219 -25.0801239 66.50709534 C-28.34933919 65.93933021 -31.39928854 65.88022465 -34.71801758 65.88647461 C-35.37223694 65.88632858 -36.0264563 65.88618256 -36.70050049 65.8860321 C-38.84854526 65.88672506 -40.99650175 65.89448836 -43.14453125 65.90234375 C-44.63954114 65.90421012 -46.13455165 65.90563299 -47.62956238 65.90663147 C-51.55371811 65.91043936 -55.4778365 65.92025482 -59.40197754 65.93133545 C-63.41055801 65.94158679 -67.41914455 65.94613706 -71.42773438 65.95117188 C-79.28517334 65.9618787 -87.14258202 65.97893428 -95 66 C-95 65.67 -95 65.34 -95 65 C-94.14444519 64.86441177 -93.28889038 64.72882355 -92.40740967 64.58912659 C-84.34392468 63.31090384 -76.2807119 62.0309803 -68.21780014 60.74914646 C-64.07259454 60.09020721 -59.92728673 59.43192565 -55.78173828 58.77514648 C-51.78093393 58.14127432 -47.7804074 57.50567542 -43.78006744 56.86887932 C-42.25395725 56.62625574 -40.72774805 56.38425408 -39.2014389 56.14288521 C-37.06338899 55.80466733 -34.92570205 55.4642383 -32.78808594 55.12329102 C-31.5711908 54.93009781 -30.35429565 54.7369046 -29.1005249 54.53785706 C-26.7144429 54.12393648 -24.34941146 53.58735286 -22 53 C-27.28 51.02 -32.56 49.04 -38 47 C-37.67 44.69 -37.34 42.38 -37 40 C-36.34 41.32 -35.68 42.64 -35 44 C-28.73275523 36.65756199 -22.75406637 29.14434121 -16.91625977 21.45727539 C-13.23272592 16.60724365 -9.51446993 11.78751191 -5.75 7 C-5.05112671 6.10982178 -5.05112671 6.10982178 -4.33813477 5.20166016 C-1.13309211 1.13309211 -1.13309211 1.13309211 0 0 Z " fill="#F7F9F6" transform="translate(221,119)"/>
<path d="M0 0 C5.94 0 11.88 0 18 0 C22.45230866 4.45230866 23.15315939 5.34272269 23.25 11.25 C23.2255585 15.89999494 22.58165968 19.01994133 20 23 C20.49113281 23.45890625 20.98226562 23.9178125 21.48828125 24.390625 C23.80254412 28.38526995 23.3178553 32.22433151 23.1875 36.75 C23.16719727 38.08224609 23.16719727 38.08224609 23.14648438 39.44140625 C23.11121891 41.627865 23.05741412 43.81401072 23 46 C20.03 46 17.06 46 14 46 C13.67 39.73 13.34 33.46 13 27 C11.68 26.67 10.36 26.34 9 26 C9 32.6 9 39.2 9 46 C6.03 46 3.06 46 0 46 C0 30.82 0 15.64 0 0 Z " fill="#3D6C31" transform="translate(92,230)"/>
<path d="M0 0 C3.68623011 1.61272567 4.75355 2.630325 7 6 C7.25760279 8.69452521 7.08900053 11.28548375 7 14 C4.36 14 1.72 14 -1 14 C-1.33 12.35 -1.66 10.7 -2 9 C-3.32 9 -4.64 9 -6 9 C-6 18.9 -6 28.8 -6 39 C-4.02 38.505 -4.02 38.505 -2 38 C-1.67 34.7 -1.34 31.4 -1 28 C-2.32 28 -3.64 28 -5 28 C-5 25.36 -5 22.72 -5 20 C-0.71 20 3.58 20 8 20 C8 28.91 8 37.82 8 47 C5.69 47 3.38 47 1 47 C0.67 46.34 0.34 45.68 0 45 C-0.66 45.66 -1.32 46.32 -2 47 C-4.27734375 47.30078125 -4.27734375 47.30078125 -6.9375 47.3125 C-7.81277344 47.32925781 -8.68804687 47.34601563 -9.58984375 47.36328125 C-12 47 -12 47 -13.75390625 45.73046875 C-16.56759731 41.82305452 -16.17435538 37.20693871 -16.203125 32.56640625 C-16.21167511 31.49397926 -16.21167511 31.49397926 -16.22039795 30.39988708 C-16.22982114 28.89119943 -16.23637125 27.38249144 -16.24023438 25.8737793 C-16.24995272 23.57368985 -16.2810049 21.27448987 -16.3125 18.97460938 C-16.31902971 17.50521361 -16.32428031 16.03581149 -16.328125 14.56640625 C-16.3404718 13.88292618 -16.3528186 13.19944611 -16.36553955 12.49525452 C-16.34539304 8.14925227 -15.66943137 5.44625623 -13 2 C-8.74979338 -0.83347108 -4.98936743 -0.52603554 0 0 Z " fill="#406E34" transform="translate(73,229)"/>
<path d="M0 0 C4.62 0 9.24 0 14 0 C15.17883208 7.02149009 16.35045411 14.04410383 17.51269531 21.06835938 C17.90645448 23.43722717 18.30671083 25.80478189 18.7109375 28.171875 C19.70731002 34.20787082 20.20743476 39.88067469 20 46 C17.03 46 14.06 46 11 46 C10.67 42.37 10.34 38.74 10 35 C8.02 35 6.04 35 4 35 C4 38.63 4 42.26 4 46 C0.7 46 -2.6 46 -6 46 C-4.99638202 36.01104924 -3.76490737 26.12315777 -2.04248047 16.23144531 C-1.11038737 10.83131882 -0.44075503 5.46536233 0 0 Z " fill="#3D6C32" transform="translate(160,230)"/>
<path d="M0 0 C2.91927604 1.3961755 4.72202996 2.72202996 7 5 C7.1953125 7.1640625 7.1953125 7.1640625 7.125 9.625 C7.10695312 10.44226563 7.08890625 11.25953125 7.0703125 12.1015625 C7.04710937 12.72804687 7.02390625 13.35453125 7 14 C4.36 14 1.72 14 -1 14 C-1 12.02 -1 10.04 -1 8 C-2.32 8 -3.64 8 -5 8 C-4.48543705 13.67305651 -3.40474481 17.15516478 1 20.9375 C2.32565042 21.96829068 3.65794375 22.99066186 5 24 C8.26385061 27.26385061 8.21164989 30.88915473 8.375 35.375 C8.35426019 39.25334391 8.12043149 41.6011242 5.625 44.625 C1.70707126 48.16979267 -0.62595852 48.28887279 -5.7421875 48.21484375 C-8.87469499 47.91676778 -10.64134062 47.07276127 -13 45 C-15.29545711 41.06493066 -15.17568413 37.47994538 -15 33 C-12.03 33 -9.06 33 -6 33 C-6 35.31 -6 37.62 -6 40 C-4.02 39.505 -4.02 39.505 -2 39 C-1.58168596 35.71000718 -1.58168596 35.71000718 -2 32 C-4.12359384 29.37500791 -4.12359384 29.37500791 -7 27 C-8.1031796 25.78861378 -9.18626352 24.55866472 -10.25 23.3125 C-10.75015625 22.73113281 -11.2503125 22.14976562 -11.765625 21.55078125 C-15.27970043 17.13594598 -14.53665032 11.36650317 -14 6 C-10.48761048 0.02893781 -6.67570061 -0.74316821 0 0 Z " fill="#3E6C33" transform="translate(230,229)"/>
<path d="M0 0 C6.27 0 12.54 0 19 0 C19 2.64 19 5.28 19 8 C15.7 8 12.4 8 9 8 C9 11.3 9 14.6 9 18 C11.97 18 14.94 18 18 18 C18 20.31 18 22.62 18 25 C15.03 25 12.06 25 9 25 C9 29.29 9 33.58 9 38 C12.63 38 16.26 38 20 38 C19.67 40.64 19.34 43.28 19 46 C12.73 46 6.46 46 0 46 C0 30.82 0 15.64 0 0 Z " fill="#3D6B31" transform="translate(126,230)"/>
<path d="M0 0 C3.45141968 3.18301954 5.98444749 6.74490417 8.5234375 10.66015625 C9.40964441 12.00809777 10.29604553 13.35591163 11.18261719 14.70361328 C11.87333313 15.75853973 11.87333313 15.75853973 12.57800293 16.83477783 C14.96171254 20.46436399 17.37702781 24.07279747 19.7890625 27.68359375 C20.7592649 29.13857165 21.72931683 30.5936499 22.69921875 32.04882812 C23.1792334 32.7688501 23.65924805 33.48887207 24.15380859 34.23071289 C28.10253906 40.15380859 32.05126953 46.0769043 36 52 C36.33 48.37 36.66 44.74 37 41 C37.33 41 37.66 41 38 41 C38.68030199 45.83083133 38.93803863 50.19318584 38 55 C35.4516701 58.02954162 32.8736882 60.01945875 29.6015625 62.23046875 C26.79399861 63.90165055 26.79399861 63.90165055 25 67 C24.34 67 23.68 67 23 67 C22.83177734 65.81083984 22.83177734 65.81083984 22.66015625 64.59765625 C19.27954446 44.60122703 10.65579485 25.68031816 2.86376953 7.07226562 C1.88506857 4.72426853 0.93377454 2.36621402 0 0 Z " fill="#F5F7F4" transform="translate(77,118)"/>
<path d="M0 0 C7.26 0 14.52 0 22 0 C22 2.31 22 4.62 22 7 C20.02 7 18.04 7 16 7 C16 19.87 16 32.74 16 46 C13.03 46 10.06 46 7 46 C7 33.13 7 20.26 7 7 C4.69 7 2.38 7 0 7 C0 4.69 0 2.38 0 0 Z " fill="#3E6C32" transform="translate(185,230)"/>
<path d="M0 0 C-0.99 4.29 -1.98 8.58 -3 13 C-4.65 12.67 -6.3 12.34 -8 12 C-10.2380233 11.91442127 -12.47836264 11.8822568 -14.71801758 11.88647461 C-15.37223694 11.88632858 -16.0264563 11.88618256 -16.70050049 11.8860321 C-18.84854526 11.88672506 -20.99650175 11.89448836 -23.14453125 11.90234375 C-24.63954114 11.90421012 -26.13455165 11.90563299 -27.62956238 11.90663147 C-31.55371811 11.91043936 -35.4778365 11.92025482 -39.40197754 11.93133545 C-43.41055801 11.94158679 -47.41914455 11.94613706 -51.42773438 11.95117188 C-59.28517334 11.9618787 -67.14258202 11.97893428 -75 12 C-75 11.67 -75 11.34 -75 11 C-66.10802703 9.56024803 -57.21525337 8.12557717 -48.32142448 6.69733429 C-44.19141647 6.0339417 -40.06170238 5.36882146 -35.93261719 4.69970703 C-31.94567263 4.05369232 -27.95801278 3.41227593 -23.96982193 2.77400208 C-22.45058103 2.53004085 -20.93160225 2.28444136 -19.41289902 2.03715515 C-17.28098852 1.69031302 -15.14820909 1.34937851 -13.01513672 1.00976562 C-11.8026828 0.81435181 -10.59022888 0.61893799 -9.34103394 0.41760254 C-6 0 -6 0 0 0 Z " fill="#F7F9F6" transform="translate(201,173)"/>
<path d="M0 0 C6.6 0 13.2 0 20 0 C18.02 0.99 18.02 0.99 16 2 C8.61321867 6.11178257 4.61798154 10.22133969 1 18 C0.67 18 0.34 18 0 18 C0 12.06 0 6.12 0 0 Z " fill="#080808" transform="translate(0,0)"/>
<path d="M0 0 C0.99 1.485 0.99 1.485 2 3 C6.20233068 9.21892899 10.4459458 14.74036799 17.9375 16.8125 C18.9584375 16.9053125 18.9584375 16.9053125 20 17 C20 17.33 20 17.66 20 18 C13.4 18 6.8 18 0 18 C0 12.06 0 6.12 0 0 Z " fill="#060606" transform="translate(0,282)"/>
<path d="M0 0 C5.94 0 11.88 0 18 0 C18 6.6 18 13.2 18 20 C17.67 20 17.34 20 17 20 C16.7525 19.13375 16.505 18.2675 16.25 17.375 C13.87908501 10.97352954 10.39835301 6.9661369 5 3 C2.2875382 1.6950516 2.2875382 1.6950516 0 1 C0 0.67 0 0.34 0 0 Z " fill="#050505" transform="translate(282,0)"/>
<path d="M0 0 C0.33 0 0.66 0 1 0 C1 5.94 1 11.88 1 18 C-4.94 18 -10.88 18 -17 18 C-13 15 -13 15 -10.125 13.3125 C-5.46329374 9.86283736 -1.84685566 5.54056698 0 0 Z " fill="#040404" transform="translate(299,282)"/>
<path d="M0 0 C0 0.33 0 0.66 0 1 C14.85 1.495 14.85 1.495 30 2 C30 2.33 30 2.66 30 3 C2.775 3.495 2.775 3.495 -25 4 C-25 3.67 -25 3.34 -25 3 C-21.77176021 2.49389097 -18.54227635 1.99620093 -15.3125 1.5 C-14.40048828 1.35691406 -13.48847656 1.21382812 -12.54882812 1.06640625 C-11.21948242 0.86337891 -11.21948242 0.86337891 -9.86328125 0.65625 C-9.05157471 0.53056641 -8.23986816 0.40488281 -7.40356445 0.27539062 C-4.91466595 -0.00977723 -2.50293311 -0.04674739 0 0 Z " fill="#C6D3C2" transform="translate(151,181)"/>
<path d="M0 0 C2.475 0.495 2.475 0.495 5 1 C5.05399736 2.45792884 5.09279177 3.91642712 5.125 5.375 C5.14820312 6.18710938 5.17140625 6.99921875 5.1953125 7.8359375 C5 10 5 10 3 12 C2.01 12 1.02 12 0 12 C0 8.04 0 4.08 0 0 Z " fill="#F7F9F7" transform="translate(101,237)"/>
<path d="M0 0 C0.33 0 0.66 0 1 0 C1.33 6.27 1.66 12.54 2 19 C0.68 19 -0.64 19 -2 19 C-1.85761163 16.95809019 -1.71092972 14.91647955 -1.5625 12.875 C-1.48128906 11.73804688 -1.40007812 10.60109375 -1.31640625 9.4296875 C-1.02269035 6.2459522 -0.56875687 3.14489093 0 0 Z " fill="#E1E8E0" transform="translate(167,238)"/>
<path d="M0 0 C1 2 1 2 0.375 4.5 C-1 7 -1 7 -3.625 8.3125 C-4.40875 8.539375 -5.1925 8.76625 -6 9 C-4.47291037 5.56404834 -2.40072955 2.88087546 0 0 Z " fill="#DDE5DB" transform="translate(221,119)"/>
<path d="M0 0 C3.76488042 1.72154788 6.15063897 3.99234114 9 7 C6 7 6 7 4.39453125 5.46875 C3.87246094 4.8190625 3.35039062 4.169375 2.8125 3.5 C2.28269531 2.8503125 1.75289062 2.200625 1.20703125 1.53125 C0.80871094 1.0259375 0.41039062 0.520625 0 0 Z " fill="#BACBB6" transform="translate(172,47)"/>
</svg>
